[img]http://i.imgur.com/crZM1.jpg[/img]


[code]

7.Psychopaths.2012.R5.DVDRip.XViD-26k

 
http://www.imdb.com/title/tt1931533/


Plot:

A struggling screenwriter inadvertently becomes entangled in the Los Angeles criminal underworld after 
his oddball friends kidnap a gangster's beloved Shih Tzu.



Sources - VIDEO: Sem.psihopatov.2012 DVD9 ..... thanks .... :P
          AUDIO: P2P DVDSCR ..... thanks .... :P

          
Format                                   : AVI
Format/Info                              : Audio Video Interleave
File size                                : 1.37 GiB
Duration                                 : 1h 45mn
Overall bit rate                         : 1 862 Kbps
Writing application                      : VirtualDubMod 1.5.10.2 (build 2542/release)
Writing library                          : VirtualDub build 32839/release

Video
ID                                       : 0
Format                                   : MPEG-4 Visual
Format profile                           : Advanced Simple@L5
Format settings, BVOP                    : 2
Format settings, QPel                    : Yes
Format settings, GMC                     : No warppoints
Format settings, Matrix                  : Default (H.263)
Muxing mode                              : Packed bitstream
Codec ID                                 : XVID
Codec ID/Hint                            : XviD
Duration                                 : 1h 45mn
Bit rate                                 : 1 724 Kbps
Width                                    : 720 pixels
Height                                   : 304 pixels
Display aspect ratio                     : 2.35:1
Frame rate                               : 25.000 fps
Color space                              : YUV
Chroma subsampling                       : 4:2:0
Bit depth                                : 8 bits
Scan type                                : Progressive
Compression mode                         : Lossy
Bits/(Pixel*Frame)                       : 0.315
Stream size                              : 1.27 GiB (93%)
Writing library                          : XviD 64

Audio
ID                                       : 1
Format                                   : MPEG Audio
Format version                           : Version 1
Format profile                           : Layer 3
Codec ID                                 : 55
Codec ID/Hint                            : MP3
Duration                                 : 1h 45mn
Bit rate mode                            : Constant
Bit rate                                 : 128 Kbps
Channel(s)                               : 2 channels
Sampling rate                            : 48.0 KHz
Compression mode                         : Lossy
Stream size                              : 96.7 MiB (7%)
Alignment                                : Split accross interleaves
Interleave, duration                     : 40 ms (1.00 video frame)
Writing library                          : LAME3.98.2


Notes -

Took the R5 DVD9 vobs made a script to make magic happen then just synced and muxed the P2p
DVDSCR audio to the encode.. enjoy

[/code]

Screens:

[img]http://i.imgur.com/y2aai.png[/img]
[img]http://i.imgur.com/j4Y7W.png[/img]
[img]http://i.imgur.com/GA3yW.png[/img]
[img]http://i.imgur.com/jymMQ.png[/img]
[img]http://i.imgur.com/Y8CH9.jpg[/img]
[img]http://imageshack.us/a/img534/1861/37584293.png[/img]
[img]http://imageshack.us/a/img526/8449/37137344.png[/img]
[img]http://imageshack.us/a/img600/8366/93298525.png[/img]
[img]http://imageshack.us/a/img339/8656/56170693.png[/img]
[img]http://imageshack.us/a/img197/7306/10129184.png[/img]


Greetz:
XtremeEncode|CM8|RX|VISION|HDSCENE|xTriLL|ADTRG|CRYS|REMIXHD|HS|Tommiecook
BIDA|RX|REFILL|INSPiRAL|AXED|HOPE|Anonymous|GooN|NOIR|Blackjesus|Gabroo Punjab Deh
|UNiQUE|RESiSTANCE|TRiNiTY|LEGION

To all the people who have helped me, you know who you are

Anything to offer email us @: 26k@hushmail.me 